<svg id="Layer_1" enable-background="new 0 0 512 512" height="512" viewBox="0 0 512 512" width="512" fill="currentColor"
    xmlns="http://www.w3.org/2000/svg">
    <path
        d="m260.664 232.012h-50.167c-4.418 0-8 3.582-8 8v199.326c0 4.418 3.582 8 8 8h50.167c4.418 0 8-3.582 8-8v-199.326c0-4.419-3.581-8-8-8zm-8 199.326h-34.167v-183.326h34.167zm-85.153-146.671h-50.168c-4.418 0-8 3.582-8 8v146.671c0 4.418 3.582 8 8 8h50.168c4.418 0 8-3.582 8-8v-146.671c0-4.418-3.582-8-8-8zm-8 146.671h-34.168v-130.671h34.168zm-85.155-96.245h-50.168c-4.418 0-8 3.582-8 8v96.244c0 4.418 3.582 8 8 8h50.167c4.418 0 8-3.582 8-8v-96.244c.001-4.419-3.581-8-7.999-8zm-8 96.244h-34.168v-80.244h34.167v80.244zm-47.448-127.754c-3.309 0-6.405-2.069-7.555-5.371-1.453-4.172.751-8.733 4.924-10.186 120.492-41.962 226.506-102.973 315.427-181.45l-17.576.954c-4.414.233-8.183-3.144-8.422-7.555-.239-4.412 3.143-8.182 7.555-8.422l40.122-2.178c2.395-.129 4.723.821 6.34 2.593 1.618 1.771 2.355 4.174 2.01 6.548l-5.79 39.761c-.58 3.981-3.999 6.848-7.907 6.848-.383 0-.771-.027-1.163-.084-4.372-.637-7.4-4.697-6.764-9.069l2.585-17.757c-90.567 80.029-198.508 142.209-321.157 184.921-.869.304-1.756.447-2.629.447zm351.825-244.884 20.542 16.511-6.914 25.432c-1.125 4.137.39 8.438 3.858 10.958 1.804 1.311 3.903 1.97 6.008 1.97 1.94 0 3.885-.561 5.605-1.687l22.05-14.435 22.051 14.435c3.586 2.347 8.145 2.237 11.612-.282 3.468-2.52 4.983-6.82 3.859-10.959l-6.915-25.431 20.541-16.51c3.342-2.685 4.646-7.055 3.321-11.133s-4.948-6.848-9.229-7.056l-26.322-1.284-9.354-24.638c-1.52-4.004-5.273-6.59-9.562-6.59-4.29 0-8.043 2.586-9.562 6.589l-9.354 24.638-26.323 1.283c-4.283.208-7.906 2.978-9.23 7.056-1.326 4.079-.022 8.449 3.318 11.133zm36.785-3.674c4.064-.198 7.623-2.783 9.065-6.585l5.3-13.959 5.301 13.961c1.445 3.802 5.003 6.386 9.063 6.583l14.914.727-11.637 9.354c-3.171 2.548-4.531 6.732-3.463 10.656l3.917 14.407-12.496-8.18c-3.404-2.226-7.799-2.225-11.201.002l-12.492 8.178 3.917-14.407c1.068-3.927-.292-8.111-3.462-10.656l-11.638-9.354zm88.448 314.205-13.582-5.229c-2.06-7.235-4.945-14.195-8.614-20.777l5.912-13.309c1.344-3.025.686-6.564-1.654-8.904l-20.112-20.112c-.851-.851-1.862-1.472-2.948-1.863v-153.759c0-4.418-3.582-8-8-8h-50.168c-4.418 0-8 3.582-8 8v132.557h-15.011c-3.31 0-6.277 2.038-7.466 5.126l-4.506 11.707v-102.022c0-4.418-3.582-8-8-8h-50.168c-4.418 0-8 3.582-8 8v165.129c-.736 2.052-1.413 4.126-2.011 6.227l-13.584 5.229c-3.089 1.188-5.126 4.156-5.126 7.466v28.442c0 3.31 2.038 6.277 5.126 7.466l13.582 5.228c.599 2.104 1.276 4.181 2.013 6.235v15.27c0 2.696 1.337 5.074 3.38 6.524l-2.691 6.058c-1.344 3.024-.686 6.564 1.654 8.904l20.113 20.112c2.341 2.341 5.881 2.998 8.904 1.655l13.315-5.914c6.581 3.667 13.538 6.552 20.77 8.611l5.229 13.586c1.188 3.089 4.156 5.126 7.466 5.126h28.443c3.31 0 6.277-2.038 7.466-5.126l5.227-13.582c7.235-2.06 14.196-4.945 20.777-8.614l13.31 5.911c3.024 1.344 6.563.687 8.904-1.654l20.112-20.112c2.34-2.34 2.998-5.879 1.654-8.904l-5.914-13.315c3.667-6.581 6.552-13.538 8.611-20.77l13.586-5.229c3.089-1.188 5.126-4.156 5.126-7.466v-28.442c.001-3.309-2.037-6.277-5.125-7.466zm-56.999-215.953v150.428l-3.271 1.453c-6.582-3.667-13.538-6.552-20.77-8.611l-5.229-13.587c-.868-2.256-2.69-3.941-4.897-4.691v-124.992zm-93.151 47.368v101.683c-1.857.886-3.691 1.826-5.494 2.831l-13.315-5.914c-3.024-1.343-6.564-.685-8.904 1.655l-6.455 6.455v-106.71zm139.276 199.001-12.287 4.729c-2.462.947-4.298 3.047-4.909 5.614-2.011 8.451-5.347 16.498-9.916 23.918-1.383 2.247-1.57 5.03-.499 7.441l5.349 12.044-12.344 12.344-12.039-5.347c-2.412-1.071-5.195-.885-7.442.5-7.419 4.569-15.468 7.906-23.923 9.917-2.567.61-4.667 2.447-5.615 4.909l-4.729 12.285h-17.457l-4.729-12.288c-.947-2.462-3.047-4.298-5.614-4.909-8.451-2.011-16.498-5.347-23.917-9.916-2.247-1.382-5.03-1.57-7.442-.5l-12.044 5.35-12.345-12.344 5.347-12.038c1.071-2.412.884-5.196-.499-7.442-4.569-7.419-7.906-15.468-9.918-23.925-.611-2.566-2.447-4.667-4.909-5.614l-12.283-4.728v-17.457l12.286-4.729c2.462-.947 4.298-3.048 4.909-5.614 2.011-8.452 5.348-16.5 9.917-23.92 1.383-2.247 1.57-5.031.499-7.442l-5.348-12.042 12.344-12.345 12.045 5.35c2.412 1.07 5.195.884 7.441-.5 7.42-4.569 15.468-7.905 23.918-9.916 2.566-.611 4.667-2.447 5.614-4.909l4.73-12.288h17.457l4.73 12.288c.947 2.462 3.047 4.298 5.614 4.909 8.45 2.011 16.498 5.347 23.918 9.916 2.246 1.383 5.03 1.569 7.441.5l12.045-5.35 12.344 12.344-5.347 12.039c-1.071 2.412-.884 5.196.5 7.443 4.569 7.419 7.906 15.469 9.918 23.924.61 2.566 2.447 4.667 4.909 5.614l12.283 4.729v17.456zm-97.083-66.332c-31.763 0-57.604 25.841-57.604 57.604 0 31.762 25.841 57.603 57.604 57.603s57.604-25.841 57.604-57.603c0-31.763-25.841-57.604-57.604-57.604zm0 99.207c-22.94 0-41.604-18.663-41.604-41.603s18.663-41.604 41.604-41.604 41.604 18.663 41.604 41.604c0 22.939-18.663 41.603-41.604 41.603z" />
</svg>