<svg id="Layer_1" enable-background="new 0 0 500 500" viewBox="0 0 500 500" fill="none" stroke="currentColor"
    xmlns="http://www.w3.org/2000/svg">
    <g
        style="stroke-width:10;stroke-linecap:round;stroke-linejoin:round;stroke-miterlimit:10">
        <ellipse cx="250" cy="173.4" rx="115.5" ry="115.5"
            transform="matrix(.707 -.707 .707 .707 -49.363 227.554)" />
        <path
            d="m291.7 114.1-6.3 6.3c-2.6 2.6-6.6 3.4-9.9 1.7-2.3-1.2-4.7-2.2-7.2-3-3.5-1.2-5.8-4.5-5.8-8.2v-8.9c0-4.8-3.9-8.7-8.7-8.7h-7.5c-4.8 0-8.7 3.9-8.7 8.7v8.9c0 3.7-2.3 7.1-5.8 8.2-2.4.8-4.8 1.8-7.2 3-3.3 1.6-7.3.9-9.9-1.7l-6.3-6.3c-3.4-3.4-8.9-3.4-12.3 0l-5.3 5.3c-3.4 3.4-3.4 8.9 0 12.3l6.3 6.3c2.6 2.6 3.4 6.6 1.7 9.9-1.2 2.3-2.2 4.7-3 7.2-1.2 3.5-4.5 5.8-8.2 5.8h-8.9c-4.8 0-8.7 3.9-8.7 8.7v7.5c0 4.8 3.9 8.7 8.7 8.7h8.9c3.7 0 7.1 2.3 8.2 5.8.8 2.4 1.8 4.8 3 7.2 1.6 3.3.9 7.3-1.7 9.9l-6.3 6.3c-3.4 3.4-3.4 8.9 0 12.3l5.3 5.3c3.4 3.4 8.9 3.4 12.3 0l6.3-6.3c2.6-2.6 6.6-3.4 9.9-1.7 2.3 1.2 4.7 2.2 7.2 3 3.5 1.2 5.8 4.5 5.8 8.2v8.9c0 4.8 3.9 8.7 8.7 8.7h7.5c4.8 0 8.7-3.9 8.7-8.7v-8.9c0-3.7 2.3-7.1 5.8-8.2 2.4-.8 4.8-1.8 7.2-3 3.3-1.6 7.3-.9 9.9 1.7l6.3 6.3c3.4 3.4 8.9 3.4 12.3 0l5.3-5.3c3.4-3.4 3.4-8.9 0-12.3l-6.3-6.3c-2.6-2.6-3.4-6.6-1.7-9.9 1.2-2.3 2.2-4.7 3-7.2 1.2-3.5 4.5-5.8 8.2-5.8h8.9c4.8 0 8.7-3.9 8.7-8.7v-7.5c0-4.8-3.9-8.7-8.7-8.7h-8.9c-3.7 0-7.1-2.3-8.2-5.8-.8-2.4-1.8-4.8-3-7.2-1.6-3.3-.9-7.3 1.7-9.9l6.3-6.3c3.4-3.4 3.4-8.9 0-12.3l-5.3-5.3c-3.4-3.4-8.9-3.4-12.3 0zm-22.9 78.1c-10.4 10.4-27.2 10.4-37.6 0s-10.4-27.2 0-37.6 27.2-10.4 37.6 0c10.4 10.3 10.4 27.2 0 37.6z" />
        <path
            d="m250 13.3c-88.9 0-161 72.1-161 161 0 57.9 30.6 108.7 76.4 137 19.7 12.2 31.9 33.4 31.9 56.6v18.6c0 8.5 5.8 15.9 14 17.9 12.4 3.1 25.3 4.7 38.7 4.7 13.3 0 26.3-1.6 38.7-4.7 8.2-2 14-9.4 14-17.9v-18.6c0-23.1 12.2-44.4 31.9-56.6 45.9-28.4 76.4-79.1 76.4-137 0-88.9-72.1-161-161-161z" />
    </g>
    <g>
        <path d="m212.1 444c12.2 2.5 24.9 3.8 37.9 3.8s25.6-1.3 37.9-3.8"
            style="stroke-width:10;stroke-linecap:round;stroke-linejoin:round;stroke-miterlimit:10" />
    </g>
    <path d="m287.9 405v53.8c0 15.4-12.5 27.9-27.9 27.9h-10-9.9c-15.4 0-27.9-12.5-27.9-27.9v-53.8"
        style="stroke-width:10;stroke-linecap:round;stroke-linejoin:round;stroke-miterlimit:10" />
    <g>
        <path d="m212.1 444c12.2 2.5 24.9 3.8 37.9 3.8s25.6-1.3 37.9-3.8"
            style="stroke-width:10;stroke-linecap:round;stroke-linejoin:round;stroke-miterlimit:10" />
    </g>
</svg>