<svg id="Capa_1" enable-background="new 0 0 511.91 511.91" height="512" viewBox="0 0 511.91 511.91" fill="currentColor"
    width="512" xmlns="http://www.w3.org/2000/svg">
    <g>
        <path
            d="m405.649 242.038c1.888-6.364 3.913-12.817 5.871-19.058 7.422-23.656 14.434-46.001 14.065-63.061-.438-20.313-6.449-35.861-17.869-46.211-13.329-12.08-37.664-18.951-59.186-5.268-10.551 6.709-23.945 20.921-27.84 50.528-1.714 13.021-.532 26.131 3.512 38.964 2.156 6.848 4.961 17.692 6.072 30.465.555 6.374 5.135 11.632 11.396 13.084l46.438 10.769c7.584 1.764 15.311-2.696 17.541-10.212zm-14.329-4.441-46.118-10.694c-1.241-14.042-4.321-25.947-6.692-33.477-3.381-10.73-4.372-21.665-2.947-32.5 6.403-48.676 43.518-53.116 62.21-35.986 8.161 7.48 12.474 19.357 12.817 35.302.314 14.597-6.339 35.8-13.382 58.248-1.957 6.238-3.981 12.688-5.888 19.107z" />
        <path
            d="m381.491 264.639-36.38-8.436c-7.892-1.834-15.676 2.916-17.697 10.813-1.426 5.569-3.328 10.989-5.654 16.108-9.917 21.825 7.014 45.115 30.786 45.115 13.709-.001 26.55-8.188 31.38-21.318 2.829-7.693 5.592-15.441 8.213-23.026 1.369-3.958.991-8.332-1.037-11.999-2.028-3.666-5.531-6.311-9.611-7.257zm-11.643 37.106c-3.171 8.624-13.292 13.997-24.104 10.275-9.73-3.373-14.454-13.604-10.327-22.689 2.671-5.879 4.856-12.091 6.498-18.471l35.977 8.343c-2.57 7.428-5.276 15.011-8.044 22.542z" />
        <path
            d="m276.685 241.482c6.263-1.452 10.843-6.71 11.397-13.085 1.111-12.774 3.915-23.617 6.072-30.464 4.043-12.836 5.225-25.945 3.512-38.964-3.895-29.607-17.289-43.819-27.841-50.528-20.803-13.228-45.192-7.415-59.185 5.268-11.42 10.351-17.432 25.897-17.869 46.211-.368 17.061 6.644 39.407 14.067 63.066 1.957 6.238 3.98 12.688 5.868 19.052 2.23 7.512 9.954 11.977 17.541 10.213zm-55.534-22.986c-7.044-22.45-13.697-43.655-13.383-58.254.344-15.944 4.655-27.821 12.816-35.301 18.083-16.573 55.667-13.754 62.211 35.985 1.425 10.832.434 21.768-2.947 32.5-2.372 7.527-5.452 19.432-6.692 33.477l-46.119 10.695c-1.905-6.418-3.929-12.865-5.886-19.102z" />
        <path
            d="m234.432 306.923c10.261 27.902 50.988 28.241 62.475 1.472 3.499-8.155 3.39-17.129-.309-25.27-2.325-5.114-4.228-10.533-5.654-16.106-2.021-7.897-9.802-12.649-17.698-10.814l-36.38 8.437c-4.08.945-7.582 3.591-9.609 7.257-2.028 3.667-2.406 8.041-1.038 11.999 2.641 7.643 5.405 15.39 8.213 23.025zm42.012-36.063c1.642 6.381 3.827 12.596 6.498 18.471 4.132 9.096-.611 19.322-10.327 22.688l-.395.138c-9.721 3.366-20.359-1.301-23.71-10.412-2.749-7.475-5.455-15.057-8.043-22.542z" />
        <path
            d="m6.549 486.764 18.604 18.605c8.714 8.712 22.887 8.705 31.594 0l24.896-24.896c2.929-2.93 2.929-7.678 0-10.607-2.93-2.928-7.678-2.928-10.607 0l-24.896 24.896c-2.863 2.859-7.52 2.86-10.381.001l-18.604-18.605c-2.867-2.867-2.87-7.511 0-10.379l75.014-75.014 28.984 28.984-25.368 25.368c-2.929 2.93-2.929 7.678 0 10.607 2.93 2.928 7.678 2.927 10.607 0 7.156-7.157 40.657-40.658 51.993-51.995 5.361-5.359 7.639-12.968 6.042-20.485l20.321-20.321c79.528 61.867 194.835 56.25 267.852-16.764 79.081-79.083 79.081-207.759 0-286.841-79.084-79.08-207.759-79.08-286.841 0-74.368 74.368-77.747 189.707-16.779 267.866l-20.306 20.306c-7.369-1.567-15.022.576-20.485 6.04l-101.641 101.642c-8.73 8.731-8.731 22.862.001 31.592zm169.817-416.837c73.232-73.234 192.396-73.232 265.626 0 73.233 73.232 73.233 192.393 0 265.626-69.25 69.25-179.561 73.003-253.277 11.285-84.615-70.922-90.484-198.778-12.349-276.911zm-17.696 268.782c4.708 5.199 9.512 9.988 14.541 14.537l-16.857 16.856-14.539-14.539zm-39.874 25.429c2.891-2.893 7.541-2.841 10.381 0l18.602 18.601c2.805 2.809 2.913 7.473.001 10.383l-16.02 16.02-28.983-28.984z" />
        <path
            d="m426.639 320.199c27.061-27.061 44.046-62.905 47.827-100.93.41-4.122-2.599-7.796-6.721-8.205-4.133-.422-7.796 2.6-8.205 6.721-3.44 34.586-18.892 67.19-43.509 91.807-59.057 59.059-154.643 59.064-213.705 0-58.919-58.918-58.919-154.786 0-213.705 58.918-58.918 154.787-58.918 213.705 0 24.129 24.129 39.051 54.747 43.151 88.544.5 4.113 4.246 7.044 8.349 6.542 4.112-.499 7.041-4.236 6.542-8.349-4.509-37.159-20.911-70.82-47.435-97.345-64.768-64.766-170.152-64.766-234.92 0-64.767 64.769-64.767 170.152 0 234.92 64.924 64.921 169.994 64.924 234.921 0z"
             />
    </g>
</svg>